<svg xmlns="http://www.w3.org/2000/svg" width="120" height="120" viewBox="205 230 25 30">
  <path fill="#000000" d="M214.65,254.61c-1.7,0-3.08-.55-4.25-1.64-.75-.7-1.35-1.51-1.74-2.46-.29-.71-.34-1.45-.28-2.2.13-1.5.64-2.89,1.23-4.26.72-1.67,1.58-3.27,2.39-4.9.65-1.3,1.28-2.6,1.79-3.97.29-.78.54-1.58.69-2.4,0-.03.01-.06.02-.08,0-.01.02-.02.02-.03.01.01.03.02.03.04.02.1.04.21.06.31.25,1.17.66,2.28,1.13,3.37.85,1.96,1.87,3.83,2.81,5.75.63,1.29,1.23,2.59,1.66,3.96.26.84.45,1.69.48,2.58.03.99-.22,1.9-.76,2.74-.67,1.03-1.48,1.9-2.57,2.5-.68.37-1.41.59-2.19.67-.22.02-.44.03-.56.04Z"/>
</svg>